<?xml version="1.0" encoding="iso-8859-1"?>
<!-- Generator: Adobe Illustrator 19.0.0, SVG Export Plug-In . SVG Version: 6.00 Build 0)  -->
<svg version="1.1" id="Layer_1" xmlns="http://www.w3.org/2000/svg" xmlns:xlink="http://www.w3.org/1999/xlink" x="0px" y="0px"
	 viewBox="0 0 512 512" style="enable-background:new 0 0 512 512;" xml:space="preserve">
<g>
	<g>
		<g>
			<path d="M288.704,327.307c16.272-10.673,27.029-29.065,27.029-49.973c0-32.984-26.75-59.733-59.733-59.733
				s-59.733,26.75-59.733,59.733c0,20.909,10.757,39.301,27.029,49.973C197.24,339.591,179.2,366.085,179.2,396.8V448
				c0,4.713,3.82,8.533,8.533,8.533h136.533c4.713,0,8.533-3.82,8.533-8.533v-51.2C332.8,366.085,314.76,339.591,288.704,327.307z
				 M213.333,277.333c0-23.558,19.109-42.667,42.667-42.667s42.667,19.109,42.667,42.667S279.558,320,256,320
				S213.333,300.891,213.333,277.333z M315.733,439.467H196.267V396.8c0-32.987,26.746-59.733,59.733-59.733
				s59.733,26.746,59.733,59.733V439.467z"/>
			<path d="M503.467,200.533h-65.819l-40.96-25.6H435.2c4.713,0,8.533-3.82,8.533-8.533V98.133c0-4.713-3.82-8.533-8.533-8.533
				H298.667c-4.713,0-8.533,3.82-8.533,8.533v29.302L179.2,193.995v-19.062c0-4.713-3.82-8.533-8.533-8.533h-56.199l-25.6-25.6H128
				c4.713,0,8.533-3.82,8.533-8.533V64c0-4.713-3.82-8.533-8.533-8.533H8.533C3.82,55.467,0,59.287,0,64v68.267
				c0,4.713,3.82,8.533,8.533,8.533h56.199l25.6,25.6H51.2c-4.713,0-8.533,3.82-8.533,8.533V243.2c0,4.713,3.82,8.533,8.533,8.533
				h39.132l-25.6,25.6H8.533c-4.713,0-8.533,3.821-8.533,8.533v68.267c0,4.713,3.82,8.533,8.533,8.533H128
				c4.713,0,8.533-3.82,8.533-8.533v-68.267c0-4.713-3.82-8.533-8.533-8.533H88.868l25.6-25.6h56.199
				c4.713,0,8.533-3.82,8.533-8.533v-29.302l110.933-66.56V166.4c0,4.713,3.82,8.533,8.533,8.533h65.819l40.96,25.6h-38.513
				c-4.713,0-8.533,3.82-8.533,8.533v68.267c0,4.713,3.82,8.533,8.533,8.533h66.391l-5.12,25.6h-35.671
				c-4.713,0-8.533,3.82-8.533,8.533v68.267c0,4.713,3.821,8.533,8.533,8.533h85.333c4.713,0,8.533-3.82,8.533-8.533V320
				c0-4.713-3.82-8.533-8.533-8.533h-32.258l5.12-25.6h52.738c4.713,0,8.533-3.821,8.533-8.533v-68.267
				C512,204.354,508.18,200.533,503.467,200.533z M17.067,72.533h102.4v51.2h-102.4V72.533z M119.467,345.6h-102.4v-51.2h102.4
				V345.6z M162.133,234.667h-102.4v-51.2h102.4V234.667z M307.2,106.667h119.467v51.2H307.2V106.667z M469.333,379.733h-68.267
				v-51.2h34.146c0.021,0,0.042,0,0.064,0h34.057V379.733z M494.933,268.8h-51.212c-0.021,0-0.042,0-0.064,0h-68.191v-51.2h119.467
				V268.8z"/>
		</g>
	</g>
</g>
<g>
</g>
<g>
</g>
<g>
</g>
<g>
</g>
<g>
</g>
<g>
</g>
<g>
</g>
<g>
</g>
<g>
</g>
<g>
</g>
<g>
</g>
<g>
</g>
<g>
</g>
<g>
</g>
<g>
</g>
</svg>
