<?xml version="1.0" encoding="iso-8859-1"?>
<!-- Generator: Adobe Illustrator 19.0.0, SVG Export Plug-In . SVG Version: 6.00 Build 0)  -->
<svg version="1.1" id="Layer_1" xmlns="http://www.w3.org/2000/svg" xmlns:xlink="http://www.w3.org/1999/xlink" x="0px" y="0px"
	 viewBox="0 0 512 512" style="enable-background:new 0 0 512 512;" xml:space="preserve">
<g>
	<g>
		<g>
			<path d="M486.4,0H25.6c-4.713,0-8.533,3.82-8.533,8.533V76.8v204.8c0,4.713,3.82,8.533,8.533,8.533h221.867V358.4H136.533
				c-37.703,0-68.267,30.564-68.267,68.267H25.6c-4.713,0-8.533,3.82-8.533,8.533v68.267c0,4.713,3.82,8.533,8.533,8.533H128
				c4.713,0,8.533-3.82,8.533-8.533V435.2c0-4.713-3.82-8.533-8.533-8.533H85.333c0-28.277,22.923-51.2,51.2-51.2h110.933v51.2
				H204.8c-4.713,0-8.533,3.82-8.533,8.533v68.267c0,4.713,3.82,8.533,8.533,8.533h102.4c4.713,0,8.533-3.82,8.533-8.533V435.2
				c0-4.713-3.82-8.533-8.533-8.533h-42.667v-51.2h110.933c28.277,0,51.2,22.923,51.2,51.2H384c-4.713,0-8.533,3.82-8.533,8.533
				v68.267c0,4.713,3.82,8.533,8.533,8.533h102.4c4.713,0,8.533-3.82,8.533-8.533V435.2c0-4.713-3.82-8.533-8.533-8.533h-42.667
				c0-37.703-30.564-68.267-68.267-68.267H264.533v-68.267H486.4c4.713,0,8.533-3.82,8.533-8.533V76.8V8.533
				C494.933,3.82,491.113,0,486.4,0z M119.467,443.733v51.2H34.133v-51.2H119.467z M298.667,494.933h-85.333v-51.2h85.333V494.933z
				 M477.867,443.733v51.2h-85.333v-51.2H477.867z M34.133,17.067h443.733v51.2H34.133V17.067z M34.133,273.067V85.333h443.733
				v187.733H34.133z"/>
			<path d="M68.267,34.133h-8.533c-4.713,0-8.533,3.82-8.533,8.533s3.82,8.533,8.533,8.533h8.533c4.713,0,8.533-3.82,8.533-8.533
				S72.98,34.133,68.267,34.133z"/>
			<path d="M110.933,34.133H102.4c-4.713,0-8.533,3.82-8.533,8.533s3.82,8.533,8.533,8.533h8.533c4.713,0,8.533-3.82,8.533-8.533
				S115.646,34.133,110.933,34.133z"/>
			<path d="M153.6,34.133h-8.533c-4.713,0-8.533,3.82-8.533,8.533s3.82,8.533,8.533,8.533h8.533c4.713,0,8.533-3.82,8.533-8.533
				S158.313,34.133,153.6,34.133z"/>
			<path d="M145.067,145.067h221.867c4.713,0,8.533-3.82,8.533-8.533s-3.82-8.533-8.533-8.533H145.067
				c-4.713,0-8.533,3.82-8.533,8.533S140.354,145.067,145.067,145.067z"/>
			<path d="M128,187.733h256c4.713,0,8.533-3.82,8.533-8.533s-3.82-8.533-8.533-8.533H128c-4.713,0-8.533,3.82-8.533,8.533
				S123.287,187.733,128,187.733z"/>
			<path d="M401.067,213.333H110.933c-4.713,0-8.533,3.82-8.533,8.533s3.821,8.533,8.533,8.533h290.133
				c4.713,0,8.533-3.82,8.533-8.533S405.78,213.333,401.067,213.333z"/>
		</g>
	</g>
</g>
<g>
</g>
<g>
</g>
<g>
</g>
<g>
</g>
<g>
</g>
<g>
</g>
<g>
</g>
<g>
</g>
<g>
</g>
<g>
</g>
<g>
</g>
<g>
</g>
<g>
</g>
<g>
</g>
<g>
</g>
</svg>
